<?xml version="1.0" encoding="UTF-8" standalone="no"?>
<!-- Created with Inkscape (http://www.inkscape.org/) -->

<svg
   xmlns:dc="http://purl.org/dc/elements/1.1/"
   xmlns:cc="http://creativecommons.org/ns#"
   xmlns:rdf="http://www.w3.org/1999/02/22-rdf-syntax-ns#"
   xmlns:svg="http://www.w3.org/2000/svg"
   xmlns="http://www.w3.org/2000/svg"
   xmlns:sodipodi="http://sodipodi.sourceforge.net/DTD/sodipodi-0.dtd"
   xmlns:inkscape="http://www.inkscape.org/namespaces/inkscape"
   width="210mm"
   height="297mm"
   viewBox="0 0 210 297"
   version="1.1"
   id="svg8"
   inkscape:version="0.48.4 r9939"
   sodipodi:docname="logo.svg">
  <title
     id="title4492">TravisColbert_logo</title>
  <defs
     id="defs2" />
  <sodipodi:namedview
     id="base"
     pagecolor="#ffffff"
     bordercolor="#666666"
     borderopacity="1.0"
     inkscape:pageopacity="0.0"
     inkscape:pageshadow="2"
     inkscape:zoom="1.3"
     inkscape:cx="357.77317"
     inkscape:cy="643.21563"
     inkscape:document-units="mm"
     inkscape:current-layer="layer2"
     showgrid="true"
     inkscape:snap-grids="true"
     inkscape:window-width="1600"
     inkscape:window-height="762"
     inkscape:window-x="0"
     inkscape:window-y="31"
     inkscape:window-maximized="1">
    <inkscape:grid
       type="xygrid"
       id="grid10" />
  </sodipodi:namedview>
  <metadata
     id="metadata5">
    <rdf:RDF>
      <cc:Work
         rdf:about="">
        <dc:format>image/svg+xml</dc:format>
        <dc:type
           rdf:resource="http://purl.org/dc/dcmitype/StillImage" />
        <dc:title>TravisColbert_logo</dc:title>
      </cc:Work>
    </rdf:RDF>
  </metadata>
  <g
     inkscape:label="Layer 1"
     inkscape:groupmode="layer"
     id="layer1"
     style="display:inline">
    <path
       style="fill:none;stroke:#000000;stroke-width:1;stroke-linecap:butt;stroke-linejoin:miter;stroke-miterlimit:4;stroke-opacity:1;stroke-dasharray:none"
       d="M 45.155555,88.155551 39.511111,122.02222 C 45.155555,113.55555 50.8,105.08888 56.444444,105.08888 l 25.400001,0 c 5.644444,0 8.466667,2.82223 8.466667,8.46667 l 0,62.08889 c 0,5.64445 -5.644445,11.28889 -11.28889,14.11111 l 84.666668,0 5.64445,-33.86666 c 0,0 -9.55852,13.87858 -16.93334,16.93333 -8.69131,3.60006 -19.53091,3.60006 -28.22222,0 -7.37482,-3.05475 -13.87858,-9.55851 -16.93333,-16.93333 -4.32008,-10.42958 -4.32008,-23.4371 0,-33.86667 3.05475,-7.37482 4.64708,-9.68325 11.28888,-14.11111 8.46667,-5.64445 28.22223,-5.64445 36.68889,0 6.64181,4.42786 14.11112,14.11111 14.11112,14.11111 l -5.64445,-33.866669 z"
       id="path12"
       inkscape:connector-curvature="0"
       sodipodi:nodetypes="cccccccccssssssccc" />
  </g>
  <g
     inkscape:groupmode="layer"
     id="layer2"
     inkscape:label="Layer" />
</svg>
